# xmcd
# 
# Track frame offsets:
#     150
#     18970
#     40080
#     60382
#     78282
#     101875
#     122317
#     141637
#     157962
#     179367
# 
# Disc length: 2731
# 
# Revision: 4
# Processed by: cddbd v1.5.2PL0 Copyright (c) Steve Scherf et al.
# Submitted via: fre:ac v1.0.17
# 
DISCID=780aa90a
DTITLE=Richard Marx - Richard Marx (CP32-5437)
DYEAR=0
DGENRE=Rock
TTITLE0=Should've Known Better
TTITLE1=Don't Mean Nothing
TTITLE2=Endless Summer Nights
TTITLE3=Lonely Heart
TTITLE4=Hold On To The Nights
TTITLE5=Have Mercy
TTITLE6=Remember Manhattan
TTITLE7=The Flame Of Love
TTITLE8=Rhythm Of Life
TTITLE9=Heaven Only Knows
EXTD=
EXTT0=
EXTT1=
EXTT2=
EXTT3=
EXTT4=
EXTT5=
EXTT6=
EXTT7=
EXTT8=
EXTT9=
PLAYORDER=
